<svg xmlns="http://www.w3.org/2000/svg" xmlns:svg="http://www.w3.org/2000/svg" xmlns:xlink="http://www.w3.org/1999/xlink" id="svg2" width="360" height="8" version="1.0"><defs id="defs4"><linearGradient id="linearGradient3390"><stop style="stop-color:#4f82f1;stop-opacity:1" id="stop3392" offset="0"/><stop style="stop-color:#cbd9fc;stop-opacity:1" id="stop3394" offset="1"/></linearGradient><linearGradient id="linearGradient3360"><stop style="stop-color:#376dd9;stop-opacity:1" id="stop3362" offset="0"/><stop style="stop-color:#376dd9;stop-opacity:0" id="stop3364" offset="1"/></linearGradient><linearGradient id="linearGradient3340"><stop style="stop-color:#000;stop-opacity:1" id="stop3342" offset="0"/><stop style="stop-color:#000;stop-opacity:0" id="stop3344" offset="1"/></linearGradient><linearGradient id="linearGradient3332"><stop id="stop3356" offset="0" style="stop-color:#a0a0a0;stop-opacity:1"/><stop style="stop-color:#e3e3e3;stop-opacity:1" id="stop3336" offset="1"/></linearGradient><linearGradient id="linearGradient3354" x1="190.353" x2="190.353" y1="-29" y2="-37" gradientTransform="matrix(1.0434783,0,0,0.9883831,-11.84686,36.570175)" gradientUnits="userSpaceOnUse" xlink:href="#linearGradient3332"/><linearGradient id="linearGradient3396" x1="165" x2="165" y1="8" y2="0" gradientTransform="translate(-118.64676,0)" gradientUnits="userSpaceOnUse" xlink:href="#linearGradient3390"/><linearGradient id="linearGradient3400" x1="165" x2="165" y1="8" y2="0" gradientTransform="translate(-148.64676,0)" gradientUnits="userSpaceOnUse" xlink:href="#linearGradient3390"/><linearGradient id="linearGradient3404" x1="165" x2="165" y1="8" y2="0" gradientTransform="translate(-148.64676,0)" gradientUnits="userSpaceOnUse" xlink:href="#linearGradient3390"/><linearGradient id="linearGradient3408" x1="165" x2="165" y1="8" y2="0" gradientTransform="translate(-103.64676,0)" gradientUnits="userSpaceOnUse" xlink:href="#linearGradient3390"/><linearGradient id="linearGradient3412" x1="165" x2="165" y1="8" y2="0" gradientTransform="translate(-58.64676,0)" gradientUnits="userSpaceOnUse" xlink:href="#linearGradient3390"/><linearGradient id="linearGradient3416" x1="165" x2="165" y1="8" y2="0" gradientTransform="translate(-58.646761,2e-8)" gradientUnits="userSpaceOnUse" xlink:href="#linearGradient3390"/><linearGradient id="linearGradient3428" x1="165" x2="165" y1="8" y2="0" gradientTransform="translate(31.35324,0)" gradientUnits="userSpaceOnUse" xlink:href="#linearGradient3390"/><linearGradient id="linearGradient3430" x1="165" x2="165" y1="8" y2="0" gradientTransform="translate(1.35324,0)" gradientUnits="userSpaceOnUse" xlink:href="#linearGradient3390"/><linearGradient id="linearGradient3432" x1="165" x2="165" y1="8" y2="0" gradientTransform="translate(61.35324,0)" gradientUnits="userSpaceOnUse" xlink:href="#linearGradient3390"/><linearGradient id="linearGradient3434" x1="165" x2="165" y1="8" y2="0" gradientTransform="translate(91.35324,0)" gradientUnits="userSpaceOnUse" xlink:href="#linearGradient3390"/><linearGradient id="linearGradient3436" x1="165" x2="165" y1="8" y2="0" gradientTransform="translate(121.35324,0)" gradientUnits="userSpaceOnUse" xlink:href="#linearGradient3390"/><linearGradient id="linearGradient3442" x1="165" x2="165" y1="8" y2="0" gradientTransform="translate(151.35324,0)" gradientUnits="userSpaceOnUse" xlink:href="#linearGradient3390"/><linearGradient id="linearGradient3444" x1="165" x2="165" y1="8" y2="0" gradientTransform="translate(181.35324,0)" gradientUnits="userSpaceOnUse" xlink:href="#linearGradient3390"/><linearGradient id="linearGradient3448" x1="165" x2="165" y1="8" y2="0" gradientTransform="translate(211.35324,-2e-8)" gradientUnits="userSpaceOnUse" xlink:href="#linearGradient3390"/><linearGradient id="linearGradient3458" x1="165" x2="165" y1="8" y2="0" gradientTransform="translate(-13.646761,4e-8)" gradientUnits="userSpaceOnUse" xlink:href="#linearGradient3390"/><linearGradient id="linearGradient3460" x1="165" x2="165" y1="8" y2="0" gradientTransform="translate(31.353239,4e-8)" gradientUnits="userSpaceOnUse" xlink:href="#linearGradient3390"/><linearGradient id="linearGradient3462" x1="165" x2="165" y1="8" y2="0" gradientTransform="translate(76.353238,4e-8)" gradientUnits="userSpaceOnUse" xlink:href="#linearGradient3390"/><linearGradient id="linearGradient3470" x1="165" x2="165" y1="8" y2="0" gradientTransform="translate(121.35324,0)" gradientUnits="userSpaceOnUse" xlink:href="#linearGradient3390"/><linearGradient id="linearGradient3472" x1="165" x2="165" y1="8" y2="0" gradientTransform="translate(166.35324,0)" gradientUnits="userSpaceOnUse" xlink:href="#linearGradient3390"/><linearGradient id="linearGradient3474" x1="165" x2="165" y1="8" y2="0" gradientTransform="translate(211.35324,2e-8)" gradientUnits="userSpaceOnUse" xlink:href="#linearGradient3390"/></defs><metadata id="metadata7"/><g id="layer1"><path style="fill:none;fill-rule:evenodd;stroke:#000;stroke-width:2;stroke-linecap:butt;stroke-linejoin:miter;stroke-miterlimit:4;stroke-dasharray:none;stroke-opacity:1" id="path2160" d="M -9,-16 L 366,-16"/><path style="fill:#4a7eee;fill-opacity:1;fill-rule:evenodd;stroke:none;stroke-width:1px;stroke-linecap:butt;stroke-linejoin:miter;stroke-opacity:1" id="path3138" d="M 25,87 L 10,81 L -5,81 L 10,87 L -5,93 L 10,93 L 25,87 z"/><path style="fill:#4a7eee;fill-opacity:1;fill-rule:evenodd;stroke:none;stroke-width:1px;stroke-linecap:butt;stroke-linejoin:miter;stroke-opacity:1" id="path3140" d="M -35,81 L -20,87 L -35,93 L -20,93 L -5,87 L -20,81 L -35,81 z"/><path style="fill:#4a7eee;fill-opacity:1;fill-rule:evenodd;stroke:none;stroke-width:1px;stroke-linecap:butt;stroke-linejoin:miter;stroke-opacity:1" id="path3143" d="M 85,87 L 70,81 L 55,81 L 70,87 L 55,93 L 70,93 L 85,87 z"/><path style="fill:#4a7eee;fill-opacity:1;fill-rule:evenodd;stroke:none;stroke-width:1px;stroke-linecap:butt;stroke-linejoin:miter;stroke-opacity:1" id="path3145" d="M 25,81 L 40,87 L 25,93 L 40,93 L 55,87 L 40,81 L 25,81 z"/><path style="fill:#4a7eee;fill-opacity:1;fill-rule:evenodd;stroke:none;stroke-width:1px;stroke-linecap:butt;stroke-linejoin:miter;stroke-opacity:1" id="path3147" d="M 85,81 L 100,87 L 85,93 L 100,93 L 115,87 L 100,81 L 85,81 z M 115,81 L 130,87 L 115,93 L 130,93 L 145,87 L 130,81 L 115,81 z M 145,81 L 160,87 L 145,93 L 160,93 L 175,87 L 160,81 L 145,81 z M 175,81 L 190,87 L 175,93 L 190,93 L 205,87 L 190,81 L 175,81 z"/><path style="fill:#4a7eee;fill-opacity:1;fill-rule:evenodd;stroke:none;stroke-width:1px;stroke-linecap:butt;stroke-linejoin:miter;stroke-opacity:1" id="path3156" d="M 265,87 L 250,81 L 235,81 L 250,87 L 235,93 L 250,93 L 265,87 z"/><path style="fill:#4a7eee;fill-opacity:1;fill-rule:evenodd;stroke:none;stroke-width:1px;stroke-linecap:butt;stroke-linejoin:miter;stroke-opacity:1" id="path3158" d="M 205,81 L 220,87 L 205,93 L 220,93 L 235,87 L 220,81 L 205,81 z"/><path style="fill:#4a7eee;fill-opacity:1;fill-rule:evenodd;stroke:none;stroke-width:1px;stroke-linecap:butt;stroke-linejoin:miter;stroke-opacity:1" id="path3160" d="M 325,87 L 310,81 L 295,81 L 310,87 L 295,93 L 310,93 L 325,87 z"/><path style="fill:#4a7eee;fill-opacity:1;fill-rule:evenodd;stroke:none;stroke-width:1px;stroke-linecap:butt;stroke-linejoin:miter;stroke-opacity:1" id="path3162" d="M 265,81 L 280,87 L 265,93 L 280,93 L 295,87 L 280,81 L 265,81 z"/><path style="fill:#4a7eee;fill-opacity:1;fill-rule:evenodd;stroke:none;stroke-width:1px;stroke-linecap:butt;stroke-linejoin:miter;stroke-opacity:1" id="path3164" d="M 325,81 L 340,87 L 325,93 L 340,93 L 355,87 L 340,81 L 325,81 z M 355,81 L 370,87 L 355,93 L 370,93 L 385,87 L 370,81 L 355,81 z M 385,81 L 400,87 L 385,93 L 400,93 L 415,87 L 400,81 L 385,81 z M 415,81 L 430,87 L 415,93 L 430,93 L 445,87 L 430,81 L 415,81 z"/><rect style="fill:url(#linearGradient3354);fill-opacity:1;stroke:none;stroke-width:2;stroke-miterlimit:4;stroke-dasharray:none" id="rect2558" width="360" height="8" x="0" y="0"/><path style="fill:url(#linearGradient3404);fill-opacity:1;fill-rule:evenodd;stroke:none;stroke-width:1px;stroke-linecap:butt;stroke-linejoin:miter;stroke-opacity:1" id="path3402" d="M -9.9999996,1.3322676e-15 C -3.0344676,1.0100021 4e-07,4 4e-07,4 C 4e-07,4 -2.9999996,7 -9.9999996,8 L 5.0000004,8 C 12,7 15,4 15,4 C 15,4 12,1 5.0000004,1.3322676e-15 L -9.9999996,1.3322676e-15 z"/><path style="fill:url(#linearGradient3408);fill-opacity:1;fill-rule:evenodd;stroke:none;stroke-width:1px;stroke-linecap:butt;stroke-linejoin:miter;stroke-opacity:1" id="path3406" d="M 35,-2.4980018e-16 C 41.965532,1.0100021 45,4 45,4 C 45,4 42,7 35,8 L 50,8 C 57,7 60,4 60,4 C 60,4 57,1 50,-2.4980018e-16 L 35,-2.4980018e-16 z"/><path style="fill:url(#linearGradient3416);fill-opacity:1;fill-rule:evenodd;stroke:none;stroke-width:1px;stroke-linecap:butt;stroke-linejoin:miter;stroke-opacity:1" id="path3414" d="M 80,-2.220446e-16 C 86.96553,1.0100021 90,4 90,4 C 90,4 87,7 80,8 L 95,8 C 102,7 105,4 105,4 C 105,4 102,1 95,-2.220446e-16 L 80,-2.220446e-16 z"/><rect style="fill:none;fill-opacity:.48627451;stroke:#8d8d8d;stroke-width:1;stroke-miterlimit:4;stroke-dasharray:none;stroke-opacity:1" id="rect3450" width="370" height="8" x="-.128" y="-28.378"/><path style="fill:url(#linearGradient3458);fill-opacity:1;fill-rule:evenodd;stroke:none;stroke-width:1px;stroke-linecap:butt;stroke-linejoin:miter;stroke-opacity:1" id="path3452" d="M 125,-2.7755576e-16 C 131.96554,1.0100021 135,4 135,4 C 135,4 132,7 125,8 L 140,8 C 147,7 150,4 150,4 C 150,4 147,1 140,-2.7755576e-16 L 125,-2.7755576e-16 z"/><path style="fill:url(#linearGradient3460);fill-opacity:1;fill-rule:evenodd;stroke:none;stroke-width:1px;stroke-linecap:butt;stroke-linejoin:miter;stroke-opacity:1" id="path3454" d="M 170,-2.7755576e-16 C 176.96554,1.0100021 180,4 180,4 C 180,4 177,7 170,8 L 185,8 C 192,7 195,4 195,4 C 195,4 192,1 185,-2.7755576e-16 L 170,-2.7755576e-16 z"/><path style="fill:url(#linearGradient3462);fill-opacity:1;fill-rule:evenodd;stroke:none;stroke-width:1px;stroke-linecap:butt;stroke-linejoin:miter;stroke-opacity:1" id="path3456" d="M 215,-2.7755576e-16 C 221.96553,1.0100021 225,4 225,4 C 225,4 222,7 215,8 L 230,8 C 237,7 240,4 240,4 C 240,4 237,1 230,-2.7755576e-16 L 215,-2.7755576e-16 z"/><path style="fill:url(#linearGradient3470);fill-opacity:1;fill-rule:evenodd;stroke:none;stroke-width:1px;stroke-linecap:butt;stroke-linejoin:miter;stroke-opacity:1" id="path3464" d="M 260,-2.4980018e-16 C 266.96553,1.0100021 270,4 270,4 C 270,4 267,7 260,8 L 275,8 C 282,7 285,4 285,4 C 285,4 282,1 275,-2.4980018e-16 L 260,-2.4980018e-16 z"/><path style="fill:url(#linearGradient3472);fill-opacity:1;fill-rule:evenodd;stroke:none;stroke-width:1px;stroke-linecap:butt;stroke-linejoin:miter;stroke-opacity:1" id="path3466" d="M 305,-2.4980018e-16 C 311.96553,1.0100021 315,4 315,4 C 315,4 312,7 305,8 L 320,8 C 327,7 330,4 330,4 C 330,4 327,1 320,-2.4980018e-16 L 305,-2.4980018e-16 z"/><path style="fill:url(#linearGradient3474);fill-opacity:1;fill-rule:evenodd;stroke:none;stroke-width:1px;stroke-linecap:butt;stroke-linejoin:miter;stroke-opacity:1" id="path3468" d="M 350,-2.4980018e-16 C 356.96553,1.0100021 360,4 360,4 C 360,4 357,7 350,8 L 365,8 C 372,7 375,4 375,4 C 375,4 372,1 365,-2.4980018e-16 L 350,-2.4980018e-16 z"/></g></svg>