<svg xmlns="http://www.w3.org/2000/svg" xmlns:svg="http://www.w3.org/2000/svg" xmlns:xlink="http://www.w3.org/1999/xlink" id="svg2" width="360" height="8" version="1.0"><defs id="defs4"><linearGradient id="linearGradient3360"><stop style="stop-color:#376dd9;stop-opacity:1" id="stop3362" offset="0"/><stop style="stop-color:#376dd9;stop-opacity:0" id="stop3364" offset="1"/></linearGradient><linearGradient id="linearGradient3340"><stop style="stop-color:#000;stop-opacity:1" id="stop3342" offset="0"/><stop style="stop-color:#000;stop-opacity:0" id="stop3344" offset="1"/></linearGradient><linearGradient id="linearGradient3332"><stop style="stop-color:#2f67d7;stop-opacity:1" id="stop3334" offset="0"/><stop id="stop3356" offset=".5" style="stop-color:#2f67d7;stop-opacity:.49803922"/><stop style="stop-color:#2f67d7;stop-opacity:0" id="stop3336" offset="1"/></linearGradient><linearGradient id="linearGradient3354" x1="190" x2="190" y1="-29" y2="-37" gradientUnits="userSpaceOnUse" xlink:href="#linearGradient3332"/><linearGradient id="linearGradient3366" x1="185" x2="185" y1="-29" y2="-41" gradientUnits="userSpaceOnUse" xlink:href="#linearGradient3360"/></defs><metadata id="metadata7"/><g id="layer1"><path style="fill:none;fill-rule:evenodd;stroke:#000;stroke-width:2;stroke-linecap:butt;stroke-linejoin:miter;stroke-miterlimit:4;stroke-dasharray:none;stroke-opacity:1" id="path2160" d="M -9,-16 L 366,-16"/><path style="fill:#4a7eed;fill-opacity:1;fill-rule:evenodd;stroke:none;stroke-width:1px;stroke-linecap:butt;stroke-linejoin:miter;stroke-opacity:1" id="path3138" d="M 45,4 L 30,-2 L 15,-2 L 30,4 L 15,10 L 30,10 L 45,4 z"/><path style="fill:#4a7eed;fill-opacity:1;fill-rule:evenodd;stroke:none;stroke-width:1px;stroke-linecap:butt;stroke-linejoin:miter;stroke-opacity:1" id="path3140" d="M -15,-2 L 0,4 L -15,10 L 0,10 L 15,4 L 0,-2 L -15,-2 z"/><path style="fill:#4a7eed;fill-opacity:1;fill-rule:evenodd;stroke:none;stroke-width:1px;stroke-linecap:butt;stroke-linejoin:miter;stroke-opacity:1" id="path3143" d="M 105,4 L 90,-2 L 75,-2 L 90,4 L 75,10 L 90,10 L 105,4 z"/><path style="fill:#4a7eed;fill-opacity:1;fill-rule:evenodd;stroke:none;stroke-width:1px;stroke-linecap:butt;stroke-linejoin:miter;stroke-opacity:1" id="path3145" d="M 45,-2 L 60,4 L 45,10 L 60,10 L 75,4 L 60,-2 L 45,-2 z"/><path style="fill:#4a7eed;fill-opacity:1;fill-rule:evenodd;stroke:none;stroke-width:1px;stroke-linecap:butt;stroke-linejoin:miter;stroke-opacity:1" id="path3147" d="M 105,-2 L 120,4 L 105,10 L 120,10 L 135,4 L 120,-2 L 105,-2 z M 135,-2 L 150,4 L 135,10 L 150,10 L 165,4 L 150,-2 L 135,-2 z M 165,-2 L 180,4 L 165,10 L 180,10 L 195,4 L 180,-2 L 165,-2 z M 195,-2 L 210,4 L 195,10 L 210,10 L 225,4 L 210,-2 L 195,-2 z"/><path style="fill:#4a7eed;fill-opacity:1;fill-rule:evenodd;stroke:none;stroke-width:1px;stroke-linecap:butt;stroke-linejoin:miter;stroke-opacity:1" id="path3156" d="M 285,4 L 270,-2 L 255,-2 L 270,4 L 255,10 L 270,10 L 285,4 z"/><path style="fill:#4a7eed;fill-opacity:1;fill-rule:evenodd;stroke:none;stroke-width:1px;stroke-linecap:butt;stroke-linejoin:miter;stroke-opacity:1" id="path3158" d="M 225,-2 L 240,4 L 225,10 L 240,10 L 255,4 L 240,-2 L 225,-2 z"/><path style="fill:#4a7eed;fill-opacity:1;fill-rule:evenodd;stroke:none;stroke-width:1px;stroke-linecap:butt;stroke-linejoin:miter;stroke-opacity:1" id="path3160" d="M 345,4 L 330,-2 L 315,-2 L 330,4 L 315,10 L 330,10 L 345,4 z"/><path style="fill:#4a7eed;fill-opacity:1;fill-rule:evenodd;stroke:none;stroke-width:1px;stroke-linecap:butt;stroke-linejoin:miter;stroke-opacity:1" id="path3162" d="M 285,-2 L 300,4 L 285,10 L 300,10 L 315,4 L 300,-2 L 285,-2 z"/><path style="fill:#4a7eed;fill-opacity:1;fill-rule:evenodd;stroke:none;stroke-width:1px;stroke-linecap:butt;stroke-linejoin:miter;stroke-opacity:1" id="path3164" d="M 345,-2 L 360,4 L 345,10 L 360,10 L 375,4 L 360,-2 L 345,-2 z M 375,-2 L 390,4 L 375,10 L 390,10 L 405,4 L 390,-2 L 375,-2 z M 405,-2 L 420,4 L 405,10 L 420,10 L 435,4 L 420,-2 L 405,-2 z M 435,-2 L 450,4 L 435,10 L 450,10 L 465,4 L 450,-2 L 435,-2 z"/><rect style="fill:url(#linearGradient3354);fill-opacity:1;stroke:none;stroke-width:2;stroke-miterlimit:4;stroke-dasharray:none" id="rect2558" width="345" height="8.094" x="11.353" y="-37"/><path style="fill:url(#linearGradient3366);fill-opacity:1;fill-rule:evenodd;stroke:none;stroke-width:1px;stroke-linecap:butt;stroke-linejoin:miter;stroke-opacity:1" id="path3358" d="M 115,-39 L 130,-33 L 115,-27 L 130,-27 L 145,-33 L 130,-39 L 115,-39 z M 145,-39 C 145,-39 155,-37 160,-33 C 155,-29 145,-27 145,-27 L 160,-27 C 160,-27 170,-29 175,-33 C 170,-37 160,-39 160,-39 L 145,-39 z M 175,-39 L 190,-33 L 175,-27 L 190,-27 L 205,-33 L 190,-39 L 175,-39 z M 205,-39 L 220,-33 L 205,-27 L 220,-27 L 235,-33 L 220,-39 L 205,-39 z"/></g></svg>