<svg xmlns="http://www.w3.org/2000/svg" xmlns:cc="http://web.resource.org/cc/" xmlns:svg="http://www.w3.org/2000/svg" xmlns:xlink="http://www.w3.org/1999/xlink" id="svg2" width="360" height="9" version="1.0"><defs id="defs4"><linearGradient id="linearGradient5017"><stop style="stop-color:#fff;stop-opacity:1" id="stop5019" offset="0"/><stop id="stop5025" offset=".5" style="stop-color:#2251ff;stop-opacity:1"/><stop style="stop-color:#fff;stop-opacity:1" id="stop5021" offset="1"/></linearGradient><linearGradient id="linearGradient5023" x1="70.019" x2="70.019" y1="0" y2="11.006" gradientTransform="matrix(1.2000001,0,0,0.8181818,20,-40)" gradientUnits="userSpaceOnUse" xlink:href="#linearGradient5017"/></defs><metadata id="metadata7"/><g id="layer1"><rect style="fill:url(#linearGradient5023);fill-opacity:1;stroke:none;stroke-width:2;stroke-miterlimit:4;stroke-dasharray:none;stroke-opacity:1" id="rect4046" width="360" height="9" x="20" y="-40"/><path style="fill:none;fill-opacity:1;fill-rule:evenodd;stroke:#4a70d7;stroke-width:2.12644768;stroke-linecap:butt;stroke-linejoin:miter;stroke-miterlimit:4;stroke-dasharray:none;stroke-opacity:1" id="path2160" d="M -0.40539646,4.4749135 L 361.15027,4.4749135"/><g id="g4516"><path style="fill:#4a70d7;fill-opacity:1;fill-rule:evenodd;stroke:none;stroke-width:1px;stroke-linecap:butt;stroke-linejoin:miter;stroke-opacity:1" id="path2294" d="M 0,9 L 15,4.5 L 0,0 L 0,9 z"/><path style="fill:#4a70d7;fill-opacity:1;fill-rule:evenodd;stroke:none;stroke-width:1px;stroke-linecap:butt;stroke-linejoin:miter;stroke-opacity:1" id="path3373" d="M 60,9 L 75,4.5 L 60,0 L 60,9 z"/><path style="fill:#4a70d7;fill-opacity:1;fill-rule:evenodd;stroke:none;stroke-width:1px;stroke-linecap:butt;stroke-linejoin:miter;stroke-opacity:1" id="path3375" d="M 90,9 L 105,4.5 L 90,0 L 90,9 z"/><path style="fill:#4a70d7;fill-opacity:1;fill-rule:evenodd;stroke:none;stroke-width:1px;stroke-linecap:butt;stroke-linejoin:miter;stroke-opacity:1" id="path3377" d="M 120,9 L 135,4.5 L 120,0 L 120,9 z"/><path style="fill:#4a70d7;fill-opacity:1;fill-rule:evenodd;stroke:none;stroke-width:1px;stroke-linecap:butt;stroke-linejoin:miter;stroke-opacity:1" id="path3379" d="M 150,9 L 165,4.5 L 150,0 L 150,9 z"/><path style="fill:#4a70d7;fill-opacity:1;fill-rule:evenodd;stroke:none;stroke-width:1px;stroke-linecap:butt;stroke-linejoin:miter;stroke-opacity:1" id="path3371" d="M 30,9 L 45,4.5 L 30,0 L 30,9 z"/><path style="fill:#4a70d7;fill-opacity:1;fill-rule:evenodd;stroke:none;stroke-width:1px;stroke-linecap:butt;stroke-linejoin:miter;stroke-opacity:1" id="path3405" d="M 180,9 L 195,4.5 L 180,0 L 180,9 z"/><path style="fill:#4a70d7;fill-opacity:1;fill-rule:evenodd;stroke:none;stroke-width:1px;stroke-linecap:butt;stroke-linejoin:miter;stroke-opacity:1" id="path3407" d="M 240,9 L 255,4.5 L 240,0 L 240,9 z"/><path style="fill:#4a70d7;fill-opacity:1;fill-rule:evenodd;stroke:none;stroke-width:1px;stroke-linecap:butt;stroke-linejoin:miter;stroke-opacity:1" id="path3409" d="M 270,9 L 285,4.5 L 270,0 L 270,9 z"/><path style="fill:#4a70d7;fill-opacity:1;fill-rule:evenodd;stroke:none;stroke-width:1px;stroke-linecap:butt;stroke-linejoin:miter;stroke-opacity:1" id="path3411" d="M 300,9 L 315,4.5 L 300,0 L 300,9 z"/><path style="fill:#4a70d7;fill-opacity:1;fill-rule:evenodd;stroke:none;stroke-width:1px;stroke-linecap:butt;stroke-linejoin:miter;stroke-opacity:1" id="path3413" d="M 330,9 L 345,4.5 L 330,0 L 330,9 z"/><path style="fill:#4a70d7;fill-opacity:1;fill-rule:evenodd;stroke:none;stroke-width:1px;stroke-linecap:butt;stroke-linejoin:miter;stroke-opacity:1" id="path3415" d="M 210,9 L 225,4.5 L 210,0 L 210,9 z"/></g></g></svg>