<svg xmlns="http://www.w3.org/2000/svg" xmlns:cc="http://web.resource.org/cc/" xmlns:svg="http://www.w3.org/2000/svg" xmlns:xlink="http://www.w3.org/1999/xlink" id="svg2" width="350" height="15" version="1.0"><defs id="defs4"><linearGradient id="linearGradient5017"><stop style="stop-color:#fff;stop-opacity:1" id="stop5019" offset="0"/><stop id="stop5025" offset=".5" style="stop-color:#2251ff;stop-opacity:1"/><stop style="stop-color:#fff;stop-opacity:1" id="stop5021" offset="1"/></linearGradient><linearGradient id="linearGradient5023" x1="70.019" x2="70.019" y1="0" y2="11.006" gradientTransform="matrix(1.2000001,0,0,0.8181818,20,-40)" gradientUnits="userSpaceOnUse" xlink:href="#linearGradient5017"/><filter id="filter4023" width="1.009" height="2.473" x="-.004" y="-.737"><feGaussianBlur id="feGaussianBlur4025" stdDeviation=".652"/></filter><filter id="filter4027" width="1.258" height="1.342" x="-.129" y="-.171"><feGaussianBlur id="feGaussianBlur4029" stdDeviation=".652"/></filter><filter id="filter4031" width="1.258" height="1.342" x="-.129" y="-.171"><feGaussianBlur id="feGaussianBlur4033" stdDeviation=".652"/></filter><filter id="filter4035" width="1.258" height="1.342" x="-.129" y="-.171"><feGaussianBlur id="feGaussianBlur4037" stdDeviation=".652"/></filter><filter id="filter4039" width="1.258" height="1.342" x="-.129" y="-.171"><feGaussianBlur id="feGaussianBlur4041" stdDeviation=".652"/></filter><filter id="filter4043" width="1.258" height="1.342" x="-.129" y="-.171"><feGaussianBlur id="feGaussianBlur4045" stdDeviation=".652"/></filter><filter id="filter4047" width="1.258" height="1.342" x="-.129" y="-.171"><feGaussianBlur id="feGaussianBlur4049" stdDeviation=".652"/></filter><filter id="filter4051" width="1.258" height="1.342" x="-.129" y="-.171"><feGaussianBlur id="feGaussianBlur4053" stdDeviation=".652"/></filter><filter id="filter4055" width="1.258" height="1.342" x="-.129" y="-.171"><feGaussianBlur id="feGaussianBlur4057" stdDeviation=".652"/></filter><filter id="filter4059" width="1.258" height="1.342" x="-.129" y="-.171"><feGaussianBlur id="feGaussianBlur4061" stdDeviation=".652"/></filter><filter id="filter4063" width="1.258" height="1.342" x="-.129" y="-.171"><feGaussianBlur id="feGaussianBlur4065" stdDeviation=".652"/></filter><filter id="filter4067" width="1.258" height="1.342" x="-.129" y="-.171"><feGaussianBlur id="feGaussianBlur4069" stdDeviation=".652"/></filter><filter id="filter4071" width="1.258" height="1.342" x="-.129" y="-.171"><feGaussianBlur id="feGaussianBlur4073" stdDeviation=".652"/></filter><filter id="filter4075" width="1.258" height="1.342" x="-.129" y="-.171"><feGaussianBlur id="feGaussianBlur4077" stdDeviation=".652"/></filter><filter id="filter4079" width="1.258" height="1.342" x="-.129" y="-.171"><feGaussianBlur id="feGaussianBlur4081" stdDeviation=".652"/></filter><filter id="filter4083" width="1.258" height="1.342" x="-.129" y="-.171"><feGaussianBlur id="feGaussianBlur4085" stdDeviation=".652"/></filter><filter id="filter4087" width="1.258" height="1.342" x="-.129" y="-.171"><feGaussianBlur id="feGaussianBlur4089" stdDeviation=".652"/></filter><filter id="filter4091" width="1.258" height="1.342" x="-.129" y="-.171"><feGaussianBlur id="feGaussianBlur4093" stdDeviation=".652"/></filter><filter id="filter4095" width="1.258" height="1.342" x="-.129" y="-.171"><feGaussianBlur id="feGaussianBlur4097" stdDeviation=".652"/></filter></defs><metadata id="metadata7"/><g id="layer1"><g id="g6175" transform="matrix(-0.9724723,0,0,0.9444118,432.41777,0.1857976)"><path id="path2484" d="M -1.937,13.308949 L 359.61867,13.308949" transform="matrix(1.2997366,0,0,1.2855968,1.2163811,-8.3570069)" style="fill:none;fill-opacity:1;fill-rule:evenodd;stroke:#b6b6b6;stroke-width:2.12599993;stroke-linecap:butt;stroke-linejoin:miter;stroke-miterlimit:4;stroke-dasharray:none;stroke-opacity:1;filter:url(#filter4023)"/><path id="path2486" d="M 3.7016295,22.102965 L 13.729598,18.514392 L 3.7695635,15.063" transform="matrix(1.2855968,0,0,1.2855968,0.757168,-14.998355)" style="fill:none;fill-rule:evenodd;stroke:#b6b6b6;stroke-width:2.12599993;stroke-linecap:round;stroke-linejoin:miter;stroke-miterlimit:4;stroke-dasharray:none;stroke-opacity:1;filter:url(#filter4027)"/><path id="path2488" d="M 23.701631,22.102965 L 33.729601,18.514392 L 23.76956,15.063" transform="matrix(1.2855968,0,0,1.2855968,0.757168,-14.998355)" style="fill:none;fill-rule:evenodd;stroke:#b6b6b6;stroke-width:2.12599993;stroke-linecap:round;stroke-linejoin:miter;stroke-miterlimit:4;stroke-dasharray:none;stroke-opacity:1;filter:url(#filter4031)"/><path id="path2490" d="M 43.701631,22.102965 L 53.7296,18.514392 L 43.76956,15.063" transform="matrix(1.2855968,0,0,1.2855968,0.757168,-14.998355)" style="fill:none;fill-rule:evenodd;stroke:#b6b6b6;stroke-width:2.12599993;stroke-linecap:round;stroke-linejoin:miter;stroke-miterlimit:4;stroke-dasharray:none;stroke-opacity:1;filter:url(#filter4035)"/><path id="path2492" d="M 63.701631,22.102965 L 73.729601,18.514392 L 63.76956,15.063" transform="matrix(1.2855968,0,0,1.2855968,0.757168,-14.998355)" style="fill:none;fill-rule:evenodd;stroke:#b6b6b6;stroke-width:2.12599993;stroke-linecap:round;stroke-linejoin:miter;stroke-miterlimit:4;stroke-dasharray:none;stroke-opacity:1;filter:url(#filter4039)"/><path id="path2494" d="M 83.70163,22.102965 L 93.729601,18.514392 L 83.76956,15.063" transform="matrix(1.2855968,0,0,1.2855968,0.757168,-14.998355)" style="fill:none;fill-rule:evenodd;stroke:#b6b6b6;stroke-width:2.12599993;stroke-linecap:round;stroke-linejoin:miter;stroke-miterlimit:4;stroke-dasharray:none;stroke-opacity:1;filter:url(#filter4043)"/><path id="path2496" d="M 103.70163,22.102964 L 113.7296,18.514392 L 103.76957,15.063" transform="matrix(1.2855968,0,0,1.2855968,0.757168,-14.998355)" style="fill:none;fill-rule:evenodd;stroke:#b6b6b6;stroke-width:2.12599993;stroke-linecap:round;stroke-linejoin:miter;stroke-miterlimit:4;stroke-dasharray:none;stroke-opacity:1;filter:url(#filter4047)"/><path id="path2498" d="M 123.70163,22.102965 L 133.7296,18.514392 L 123.76956,15.063" transform="matrix(1.2855968,0,0,1.2855968,0.757168,-14.998355)" style="fill:none;fill-rule:evenodd;stroke:#b6b6b6;stroke-width:2.12599993;stroke-linecap:round;stroke-linejoin:miter;stroke-miterlimit:4;stroke-dasharray:none;stroke-opacity:1;filter:url(#filter4051)"/><path id="path2500" d="M 143.70163,22.102965 L 153.7296,18.514392 L 143.76956,15.063" transform="matrix(1.2855968,0,0,1.2855968,0.757168,-14.998355)" style="fill:none;fill-rule:evenodd;stroke:#b6b6b6;stroke-width:2.12599993;stroke-linecap:round;stroke-linejoin:miter;stroke-miterlimit:4;stroke-dasharray:none;stroke-opacity:1;filter:url(#filter4055)"/><path id="path2502" d="M 163.70163,22.102965 L 173.7296,18.514392 L 163.76956,15.063" transform="matrix(1.2855968,0,0,1.2855968,0.757168,-14.998355)" style="fill:none;fill-rule:evenodd;stroke:#b6b6b6;stroke-width:2.12599993;stroke-linecap:round;stroke-linejoin:miter;stroke-miterlimit:4;stroke-dasharray:none;stroke-opacity:1;filter:url(#filter4059)"/><path id="path2504" d="M 183.70163,22.102965 L 193.7296,18.514392 L 183.76956,15.063" transform="matrix(1.2855968,0,0,1.2855968,0.757168,-14.998355)" style="fill:none;fill-rule:evenodd;stroke:#b6b6b6;stroke-width:2.12599993;stroke-linecap:round;stroke-linejoin:miter;stroke-miterlimit:4;stroke-dasharray:none;stroke-opacity:1;filter:url(#filter4063)"/><path id="path2506" d="M 203.70163,22.102965 L 213.7296,18.514392 L 203.76956,15.063" transform="matrix(1.2855968,0,0,1.2855968,0.757168,-14.998355)" style="fill:none;fill-rule:evenodd;stroke:#b6b6b6;stroke-width:2.12599993;stroke-linecap:round;stroke-linejoin:miter;stroke-miterlimit:4;stroke-dasharray:none;stroke-opacity:1;filter:url(#filter4067)"/><path id="path2508" d="M 223.70163,22.102964 L 233.7296,18.514392 L 223.76956,15.063" transform="matrix(1.2855968,0,0,1.2855968,0.757168,-14.998355)" style="fill:none;fill-rule:evenodd;stroke:#b6b6b6;stroke-width:2.12599993;stroke-linecap:round;stroke-linejoin:miter;stroke-miterlimit:4;stroke-dasharray:none;stroke-opacity:1;filter:url(#filter4071)"/><path id="path2510" d="M 243.70163,22.102965 L 253.7296,18.514392 L 243.76957,15.063" transform="matrix(1.2855968,0,0,1.2855968,0.757168,-14.998355)" style="fill:none;fill-rule:evenodd;stroke:#b6b6b6;stroke-width:2.12599993;stroke-linecap:round;stroke-linejoin:miter;stroke-miterlimit:4;stroke-dasharray:none;stroke-opacity:1;filter:url(#filter4075)"/><path id="path2512" d="M 263.70163,22.102965 L 273.7296,18.514392 L 263.76957,15.063" transform="matrix(1.2855968,0,0,1.2855968,0.757168,-14.998355)" style="fill:none;fill-rule:evenodd;stroke:#b6b6b6;stroke-width:2.12599993;stroke-linecap:round;stroke-linejoin:miter;stroke-miterlimit:4;stroke-dasharray:none;stroke-opacity:1;filter:url(#filter4079)"/><path id="path2514" d="M 283.70163,22.102965 L 293.7296,18.514392 L 283.76957,15.063" transform="matrix(1.2855968,0,0,1.2855968,0.757168,-14.998355)" style="fill:none;fill-rule:evenodd;stroke:#b6b6b6;stroke-width:2.12599993;stroke-linecap:round;stroke-linejoin:miter;stroke-miterlimit:4;stroke-dasharray:none;stroke-opacity:1;filter:url(#filter4083)"/><path id="path2516" d="M 303.70163,22.102965 L 313.7296,18.514392 L 303.76957,15.063" transform="matrix(1.2855968,0,0,1.2855968,0.757168,-14.998355)" style="fill:none;fill-rule:evenodd;stroke:#b6b6b6;stroke-width:2.12599993;stroke-linecap:round;stroke-linejoin:miter;stroke-miterlimit:4;stroke-dasharray:none;stroke-opacity:1;filter:url(#filter4087)"/><path id="path2518" d="M 323.70163,22.102965 L 333.7296,18.514392 L 323.76957,15.063" transform="matrix(1.2855968,0,0,1.2855968,0.757168,-14.998355)" style="fill:none;fill-rule:evenodd;stroke:#b6b6b6;stroke-width:2.12599993;stroke-linecap:round;stroke-linejoin:miter;stroke-miterlimit:4;stroke-dasharray:none;stroke-opacity:1;filter:url(#filter4091)"/><path id="path2520" d="M 343.70163,22.102964 L 353.7296,18.514392 L 343.76957,15.063" transform="matrix(1.2855968,0,0,1.2855968,0.757168,-14.998355)" style="fill:none;fill-rule:evenodd;stroke:#b6b6b6;stroke-width:2.12599993;stroke-linecap:round;stroke-linejoin:miter;stroke-miterlimit:4;stroke-dasharray:none;stroke-opacity:1;filter:url(#filter4095)"/></g><rect style="fill:url(#linearGradient5023);fill-opacity:1;stroke:none;stroke-width:2;stroke-miterlimit:4;stroke-dasharray:none;stroke-opacity:1" id="rect4046" width="360" height="9" x="20" y="-40"/><path style="fill:none;fill-opacity:1;fill-rule:evenodd;stroke:#4fac2a;stroke-width:2.61931252;stroke-linecap:butt;stroke-linejoin:miter;stroke-miterlimit:4;stroke-dasharray:none;stroke-opacity:1" id="path2160" d="M 450.53023,5.4521724 L -1.4892991,5.4521724"/><path style="fill:none;fill-rule:evenodd;stroke:#4fac2a;stroke-width:2.61931252;stroke-linecap:round;stroke-linejoin:miter;stroke-miterlimit:4;stroke-dasharray:none;stroke-opacity:1" id="path4322" d="M 448.88692,9.8571086 L 436.34989,5.5001043 L 448.80199,1.3096563"/><path style="fill:none;fill-rule:evenodd;stroke:#4fac2a;stroke-width:2.61931252;stroke-linecap:round;stroke-linejoin:miter;stroke-miterlimit:4;stroke-dasharray:none;stroke-opacity:1" id="path7245" d="M 423.88278,9.8571086 L 411.34574,5.5001042 L 423.79784,1.3096563"/><path style="fill:none;fill-rule:evenodd;stroke:#4fac2a;stroke-width:2.61931252;stroke-linecap:round;stroke-linejoin:miter;stroke-miterlimit:4;stroke-dasharray:none;stroke-opacity:1" id="path7247" d="M 398.87863,9.8571077 L 386.34158,5.5001043 L 398.79369,1.3096563"/><path style="fill:none;fill-rule:evenodd;stroke:#4fac2a;stroke-width:2.61931252;stroke-linecap:round;stroke-linejoin:miter;stroke-miterlimit:4;stroke-dasharray:none;stroke-opacity:1" id="path7251" d="M 373.87448,9.8571086 L 361.33744,5.5001043 L 373.78956,1.3096563"/><path style="fill:none;fill-rule:evenodd;stroke:#4fac2a;stroke-width:2.61931252;stroke-linecap:round;stroke-linejoin:miter;stroke-miterlimit:4;stroke-dasharray:none;stroke-opacity:1" id="path7253" d="M 348.87034,9.8571086 L 336.3333,5.5001042 L 348.78541,1.3096563"/><path style="fill:none;fill-rule:evenodd;stroke:#4fac2a;stroke-width:2.61931252;stroke-linecap:round;stroke-linejoin:miter;stroke-miterlimit:4;stroke-dasharray:none;stroke-opacity:1" id="path7255" d="M 323.86619,9.8571077 L 311.32916,5.5001043 L 323.78126,1.3096563"/><path style="fill:none;fill-rule:evenodd;stroke:#4fac2a;stroke-width:2.61931252;stroke-linecap:round;stroke-linejoin:miter;stroke-miterlimit:4;stroke-dasharray:none;stroke-opacity:1" id="path7259" d="M 298.86206,9.8571086 L 286.32501,5.5001044 L 298.77712,1.3096563"/><path style="fill:none;fill-rule:evenodd;stroke:#4fac2a;stroke-width:2.61931252;stroke-linecap:round;stroke-linejoin:miter;stroke-miterlimit:4;stroke-dasharray:none;stroke-opacity:1" id="path7261" d="M 273.8579,9.8571086 L 261.32086,5.5001044 L 273.77298,1.3096563"/><path style="fill:none;fill-rule:evenodd;stroke:#4fac2a;stroke-width:2.61931252;stroke-linecap:round;stroke-linejoin:miter;stroke-miterlimit:4;stroke-dasharray:none;stroke-opacity:1" id="path7263" d="M 248.85375,9.8571086 L 236.31671,5.5001044 L 248.76883,1.3096563"/><path style="fill:none;fill-rule:evenodd;stroke:#4fac2a;stroke-width:2.61931252;stroke-linecap:round;stroke-linejoin:miter;stroke-miterlimit:4;stroke-dasharray:none;stroke-opacity:1" id="path7267" d="M 223.84961,9.8571086 L 211.31257,5.5001044 L 223.76469,1.3096563"/><path style="fill:none;fill-rule:evenodd;stroke:#4fac2a;stroke-width:2.61931252;stroke-linecap:round;stroke-linejoin:miter;stroke-miterlimit:4;stroke-dasharray:none;stroke-opacity:1" id="path7269" d="M 198.84546,9.8571086 L 186.30843,5.5001044 L 198.76054,1.3096563"/><path style="fill:none;fill-rule:evenodd;stroke:#4fac2a;stroke-width:2.61931252;stroke-linecap:round;stroke-linejoin:miter;stroke-miterlimit:4;stroke-dasharray:none;stroke-opacity:1" id="path7271" d="M 173.84133,9.8571077 L 161.30428,5.5001044 L 173.75639,1.3096563"/><path style="fill:none;fill-rule:evenodd;stroke:#4fac2a;stroke-width:2.61931252;stroke-linecap:round;stroke-linejoin:miter;stroke-miterlimit:4;stroke-dasharray:none;stroke-opacity:1" id="path7275" d="M 148.83718,9.8571086 L 136.30013,5.5001043 L 148.75224,1.3096563"/><path style="fill:none;fill-rule:evenodd;stroke:#4fac2a;stroke-width:2.61931252;stroke-linecap:round;stroke-linejoin:miter;stroke-miterlimit:4;stroke-dasharray:none;stroke-opacity:1" id="path7277" d="M 123.83302,9.8571077 L 111.29598,5.5001041 L 123.74809,1.3096563"/><path style="fill:none;fill-rule:evenodd;stroke:#4fac2a;stroke-width:2.61931252;stroke-linecap:round;stroke-linejoin:miter;stroke-miterlimit:4;stroke-dasharray:none;stroke-opacity:1" id="path7279" d="M 98.828883,9.8571077 L 86.291839,5.5001043 L 98.743938,1.3096563"/><path style="fill:none;fill-rule:evenodd;stroke:#4fac2a;stroke-width:2.61931252;stroke-linecap:round;stroke-linejoin:miter;stroke-miterlimit:4;stroke-dasharray:none;stroke-opacity:1" id="path7283" d="M 73.824733,9.8571086 L 61.287699,5.5001043 L 73.739798,1.3096563"/><path style="fill:none;fill-rule:evenodd;stroke:#4fac2a;stroke-width:2.61931252;stroke-linecap:round;stroke-linejoin:miter;stroke-miterlimit:4;stroke-dasharray:none;stroke-opacity:1" id="path7285" d="M 48.820593,9.8571086 L 36.283549,5.5001042 L 48.735648,1.3096563"/><path style="fill:none;fill-rule:evenodd;stroke:#4fac2a;stroke-width:2.61931252;stroke-linecap:round;stroke-linejoin:miter;stroke-miterlimit:4;stroke-dasharray:none;stroke-opacity:1" id="path7289" d="M 23.816443,9.8571077 L 11.279399,5.5001042 L 23.731508,1.3096563"/></g></svg>