<svg xmlns="http://www.w3.org/2000/svg" xmlns:cc="http://web.resource.org/cc/" xmlns:svg="http://www.w3.org/2000/svg" id="svg5087" width="360" height="10" version="1.0"><defs id="defs5089"><linearGradient id="linearGradient6143"><stop style="stop-color:#fff;stop-opacity:1" id="stop6145" offset="0"/><stop id="stop6147" offset=".5" style="stop-color:#a2f09b;stop-opacity:1"/><stop style="stop-color:#fff;stop-opacity:1" id="stop6149" offset="1"/></linearGradient><linearGradient id="linearGradient6135"><stop id="stop6137" offset="0" style="stop-color:#fff;stop-opacity:1"/><stop style="stop-color:#ffafaf;stop-opacity:1" id="stop6139" offset=".5"/><stop id="stop6141" offset="1" style="stop-color:#fff;stop-opacity:1"/></linearGradient><linearGradient id="linearGradient5017"><stop style="stop-color:#fff;stop-opacity:1" id="stop5019" offset="0"/><stop id="stop5025" offset=".5" style="stop-color:#afc0ff;stop-opacity:1"/><stop style="stop-color:#fff;stop-opacity:1" id="stop5021" offset="1"/></linearGradient></defs><metadata id="metadata5092"/><g id="layer1"><path style="fill:none;fill-rule:evenodd;stroke:#818181;stroke-width:1px;stroke-linecap:butt;stroke-linejoin:miter;stroke-opacity:1" id="path11893" d="M -0.5,8.5 L 360.51948,8.5"/><path style="fill:none;fill-rule:evenodd;stroke:red;stroke-width:3;stroke-linecap:butt;stroke-linejoin:miter;stroke-miterlimit:4;stroke-dasharray:none;stroke-opacity:1" id="path11897" d="M -0.46921,4.5 L 360.49898,4.5"/><path style="fill:none;fill-rule:evenodd;stroke:#818181;stroke-width:1px;stroke-linecap:butt;stroke-linejoin:miter;stroke-opacity:1" id="path12040" d="M -0.5205,0.5 L 360.49898,0.5"/><path style="fill:#bbb;fill-opacity:.79274615;fill-rule:evenodd;stroke:none;stroke-width:1px;stroke-linecap:butt;stroke-linejoin:miter;stroke-opacity:.70466321" id="path12074" d="M 10,0 L 0,5 L 10,10 C 10,10 10,0 10,0 z"/><path style="fill:#bbb;fill-opacity:.79274615;fill-rule:evenodd;stroke:none;stroke-width:1px;stroke-linecap:butt;stroke-linejoin:miter;stroke-opacity:.70466321" id="path12116" d="M 50,0 L 40,5 L 50,10 C 50,10 50,0 50,0 z"/><path style="fill:#bbb;fill-opacity:.79274615;fill-rule:evenodd;stroke:none;stroke-width:1px;stroke-linecap:butt;stroke-linejoin:miter;stroke-opacity:.70466321" id="path12118" d="M 90,0 L 80,5 L 90,10 C 90,10 90,0 90,0 z"/><path style="fill:#bbb;fill-opacity:.79274615;fill-rule:evenodd;stroke:none;stroke-width:1px;stroke-linecap:butt;stroke-linejoin:miter;stroke-opacity:.70466321" id="path12120" d="M 130,0 L 120,5 L 130,10 C 130,10 130,0 130,0 z"/><path style="fill:#bbb;fill-opacity:.79274615;fill-rule:evenodd;stroke:none;stroke-width:1px;stroke-linecap:butt;stroke-linejoin:miter;stroke-opacity:.70466321" id="path12124" d="M 170,0 L 160,5 L 170,10 C 170,10 170,0 170,0 z"/><path style="fill:#bbb;fill-opacity:.79274615;fill-rule:evenodd;stroke:none;stroke-width:1px;stroke-linecap:butt;stroke-linejoin:miter;stroke-opacity:.70466321" id="path12128" d="M 210,0 L 200,5 L 210,10 C 210,10 210,0 210,0 z"/><path style="fill:#bbb;fill-opacity:.79274615;fill-rule:evenodd;stroke:none;stroke-width:1px;stroke-linecap:butt;stroke-linejoin:miter;stroke-opacity:.70466321" id="path12134" d="M 250,0 L 240,5 L 250,10 C 250,10 250,0 250,0 z"/><path style="fill:#bbb;fill-opacity:.79274615;fill-rule:evenodd;stroke:none;stroke-width:1px;stroke-linecap:butt;stroke-linejoin:miter;stroke-opacity:.70466321" id="path12136" d="M 290,0 L 280,5 L 290,10 C 290,10 290,0 290,0 z"/><path style="fill:#bbb;fill-opacity:.79274615;fill-rule:evenodd;stroke:none;stroke-width:1px;stroke-linecap:butt;stroke-linejoin:miter;stroke-opacity:.70466321" id="path2192" d="M 330,-8.8817842e-16 L 320,5 L 330,10 C 330,10 330,-8.8817842e-16 330,-8.8817842e-16 z"/></g></svg>