<svg xmlns="http://www.w3.org/2000/svg" xmlns:cc="http://web.resource.org/cc/" xmlns:svg="http://www.w3.org/2000/svg" id="svg5087" width="300" height="10" version="1.0"><defs id="defs5089"><linearGradient id="linearGradient6143"><stop style="stop-color:#fff;stop-opacity:1" id="stop6145" offset="0"/><stop id="stop6147" offset=".5" style="stop-color:#a2f09b;stop-opacity:1"/><stop style="stop-color:#fff;stop-opacity:1" id="stop6149" offset="1"/></linearGradient><linearGradient id="linearGradient6135"><stop id="stop6137" offset="0" style="stop-color:#fff;stop-opacity:1"/><stop style="stop-color:#ffafaf;stop-opacity:1" id="stop6139" offset=".5"/><stop id="stop6141" offset="1" style="stop-color:#fff;stop-opacity:1"/></linearGradient><linearGradient id="linearGradient5017"><stop style="stop-color:#fff;stop-opacity:1" id="stop5019" offset="0"/><stop id="stop5025" offset=".5" style="stop-color:#afc0ff;stop-opacity:1"/><stop style="stop-color:#fff;stop-opacity:1" id="stop5021" offset="1"/></linearGradient></defs><metadata id="metadata5092"/><g id="layer1"><path style="fill:none;fill-rule:evenodd;stroke:#818181;stroke-width:1px;stroke-linecap:butt;stroke-linejoin:miter;stroke-opacity:1" id="path11893" d="M -0.5,4.5 L 300.5205,4.5"/><path style="fill:none;fill-rule:evenodd;stroke:#dc143c;stroke-width:3;stroke-linecap:butt;stroke-linejoin:miter;stroke-miterlimit:4;stroke-dasharray:none;stroke-opacity:1" id="path11897" d="M -0.46921,8.5 L 300.5,8.5"/><path style="fill:none;fill-rule:evenodd;stroke:#818181;stroke-width:1px;stroke-linecap:butt;stroke-linejoin:miter;stroke-opacity:1" id="path12040" d="M -0.5205,1.5 L 300.5,1.5"/><path style="fill:#bbb;fill-rule:evenodd;stroke:none;stroke-width:1px;stroke-linecap:butt;stroke-linejoin:miter;stroke-opacity:.70466322;fill-opacity:.79274613" id="path12074" d="M 10,0 L 0,5 L 10,10 C 10,10 10,0 10,0 z"/><path style="fill:#bbb;fill-opacity:.79274615;fill-rule:evenodd;stroke:none;stroke-width:1px;stroke-linecap:butt;stroke-linejoin:miter;stroke-opacity:.70466321" id="path12114" d="M 40,0 L 30,5 L 40,10 C 40,10 40,0 40,0 z"/><path style="fill:#bbb;fill-opacity:.79274615;fill-rule:evenodd;stroke:none;stroke-width:1px;stroke-linecap:butt;stroke-linejoin:miter;stroke-opacity:.70466321" id="path12116" d="M 70,0 L 60,5 L 70,10 C 70,10 70,0 70,0 z"/><path style="fill:#bbb;fill-opacity:.79274615;fill-rule:evenodd;stroke:none;stroke-width:1px;stroke-linecap:butt;stroke-linejoin:miter;stroke-opacity:.70466321" id="path12118" d="M 100,0 L 90,5 L 100,10 C 100,10 100,0 100,0 z"/><path style="fill:#bbb;fill-opacity:.79274615;fill-rule:evenodd;stroke:none;stroke-width:1px;stroke-linecap:butt;stroke-linejoin:miter;stroke-opacity:.70466321" id="path12120" d="M 130,0 L 120,5 L 130,10 C 130,10 130,0 130,0 z"/><path style="fill:#bbb;fill-opacity:.79274615;fill-rule:evenodd;stroke:none;stroke-width:1px;stroke-linecap:butt;stroke-linejoin:miter;stroke-opacity:.70466321" id="path12124" d="M 160,0 L 150,5 L 160,10 C 160,10 160,0 160,0 z"/><path style="fill:#bbb;fill-opacity:.79274615;fill-rule:evenodd;stroke:none;stroke-width:1px;stroke-linecap:butt;stroke-linejoin:miter;stroke-opacity:.70466321" id="path12126" d="M 190,0 L 180,5 L 190,10 C 190,10 190,0 190,0 z"/><path style="fill:#bbb;fill-opacity:.79274615;fill-rule:evenodd;stroke:none;stroke-width:1px;stroke-linecap:butt;stroke-linejoin:miter;stroke-opacity:.70466321" id="path12128" d="M 220,0 L 210,5 L 220,10 C 220,10 220,0 220,0 z"/><path style="fill:#bbb;fill-opacity:.79274615;fill-rule:evenodd;stroke:none;stroke-width:1px;stroke-linecap:butt;stroke-linejoin:miter;stroke-opacity:.70466321" id="path12132" d="M 250,0 L 240,5 L 250,10 C 250,10 250,0 250,0 z"/><path style="fill:#bbb;fill-opacity:.79274615;fill-rule:evenodd;stroke:none;stroke-width:1px;stroke-linecap:butt;stroke-linejoin:miter;stroke-opacity:.70466321" id="path12134" d="M 280,0 L 270,5 L 280,10 C 280,10 280,0 280,0 z"/></g></svg>