<svg xmlns="http://www.w3.org/2000/svg" xmlns:cc="http://web.resource.org/cc/" xmlns:svg="http://www.w3.org/2000/svg" id="svg5087" width="300" height="12" version="1.0"><defs id="defs5089"><linearGradient id="linearGradient6306"><stop style="stop-color:#fff;stop-opacity:1" id="stop6308" offset="0"/><stop id="stop6310" offset=".5" style="stop-color:#a2f09b;stop-opacity:1"/><stop style="stop-color:#fff;stop-opacity:1" id="stop6312" offset="1"/></linearGradient><linearGradient id="linearGradient6135"><stop id="stop6137" offset="0" style="stop-color:#fff;stop-opacity:1"/><stop style="stop-color:#ffafaf;stop-opacity:1" id="stop6139" offset=".5"/><stop id="stop6141" offset="1" style="stop-color:#fff;stop-opacity:1"/></linearGradient><linearGradient id="linearGradient5017"><stop style="stop-color:#fff;stop-opacity:1" id="stop5019" offset="0"/><stop id="stop5025" offset=".5" style="stop-color:#afc0ff;stop-opacity:1"/><stop style="stop-color:#fff;stop-opacity:1" id="stop5021" offset="1"/></linearGradient></defs><metadata id="metadata5092"/><g id="layer1"><rect style="fill:#000;fill-opacity:1;stroke:none;stroke-width:2;stroke-miterlimit:4;stroke-dasharray:none;stroke-opacity:1" id="rect4046" width="300" height="12" x="0" y="0"/><path style="fill:#fff71e;fill-opacity:1;stroke:none;stroke-width:2;stroke-linecap:butt;stroke-miterlimit:4;stroke-dasharray:none;stroke-opacity:1" id="path10515" d="M 16,5.5 A 4.5,4.5 0 1 1 13.988225,1.750502 L 11.5,5.5 z" transform="matrix(0.8660254,0.5,-0.5,0.8660254,-0.2092921,-4.5131397)"/><path style="fill:#fff;fill-opacity:1;stroke:none;stroke-width:2;stroke-linecap:butt;stroke-miterlimit:4;stroke-dasharray:none;stroke-opacity:1" id="path11494" d="M 23 -7.5 A 1.5 1.5 0 1 1 20,-7.5 A 1.5 1.5 0 1 1 23 -7.5 z" transform="translate(-6.5,13.5)"/><path style="fill:#fff;fill-opacity:1;stroke:none;stroke-width:2;stroke-linecap:butt;stroke-miterlimit:4;stroke-dasharray:none;stroke-opacity:1" id="path11496" d="M 23 -7.5 A 1.5 1.5 0 1 1 20,-7.5 A 1.5 1.5 0 1 1 23 -7.5 z" transform="translate(-0.5,13.5)"/><path style="fill:#fff;fill-opacity:1;stroke:none;stroke-width:2;stroke-linecap:butt;stroke-miterlimit:4;stroke-dasharray:none;stroke-opacity:1" id="path11498" d="M 23 -7.5 A 1.5 1.5 0 1 1 20,-7.5 A 1.5 1.5 0 1 1 23 -7.5 z" transform="translate(5.5,13.5)"/><path style="fill:#fff71e;fill-opacity:1;stroke:none;stroke-width:2;stroke-linecap:butt;stroke-miterlimit:4;stroke-dasharray:none;stroke-opacity:1" id="path11500" d="M 16,5.5 A 4.5,4.5 0 1 1 13.988225,1.750502 L 11.5,5.5 z" transform="matrix(0.8660254,0.5,-0.5,0.8660254,29.790708,-4.5131397)"/><path style="fill:#fff;fill-opacity:1;stroke:none;stroke-width:2;stroke-linecap:butt;stroke-miterlimit:4;stroke-dasharray:none;stroke-opacity:1" id="path11502" d="M 23 -7.5 A 1.5 1.5 0 1 1 20,-7.5 A 1.5 1.5 0 1 1 23 -7.5 z" transform="translate(23.5,13.5)"/><path style="fill:#fff;fill-opacity:1;stroke:none;stroke-width:2;stroke-linecap:butt;stroke-miterlimit:4;stroke-dasharray:none;stroke-opacity:1" id="path11504" d="M 23 -7.5 A 1.5 1.5 0 1 1 20,-7.5 A 1.5 1.5 0 1 1 23 -7.5 z" transform="translate(29.5,13.5)"/><path style="fill:#fff;fill-opacity:1;stroke:none;stroke-width:2;stroke-linecap:butt;stroke-miterlimit:4;stroke-dasharray:none;stroke-opacity:1" id="path11506" d="M 23 -7.5 A 1.5 1.5 0 1 1 20,-7.5 A 1.5 1.5 0 1 1 23 -7.5 z" transform="translate(35.5,13.5)"/><path style="fill:#fff71e;fill-opacity:1;stroke:none;stroke-width:2;stroke-linecap:butt;stroke-miterlimit:4;stroke-dasharray:none;stroke-opacity:1" id="path11508" d="M 16,5.5 A 4.5,4.5 0 1 1 13.988225,1.750502 L 11.5,5.5 z" transform="matrix(0.8660254,0.5,-0.5,0.8660254,59.790708,-4.5131397)"/><path style="fill:#fff;fill-opacity:1;stroke:none;stroke-width:2;stroke-linecap:butt;stroke-miterlimit:4;stroke-dasharray:none;stroke-opacity:1" id="path11510" d="M 23 -7.5 A 1.5 1.5 0 1 1 20,-7.5 A 1.5 1.5 0 1 1 23 -7.5 z" transform="translate(53.5,13.5)"/><path style="fill:#fff;fill-opacity:1;stroke:none;stroke-width:2;stroke-linecap:butt;stroke-miterlimit:4;stroke-dasharray:none;stroke-opacity:1" id="path11512" d="M 23 -7.5 A 1.5 1.5 0 1 1 20,-7.5 A 1.5 1.5 0 1 1 23 -7.5 z" transform="translate(59.5,13.5)"/><path style="fill:#fff;fill-opacity:1;stroke:none;stroke-width:2;stroke-linecap:butt;stroke-miterlimit:4;stroke-dasharray:none;stroke-opacity:1" id="path11514" d="M 23 -7.5 A 1.5 1.5 0 1 1 20,-7.5 A 1.5 1.5 0 1 1 23 -7.5 z" transform="translate(65.5,13.5)"/><path style="fill:#fff71e;fill-opacity:1;stroke:none;stroke-width:2;stroke-linecap:butt;stroke-miterlimit:4;stroke-dasharray:none;stroke-opacity:1" id="path11516" d="M 16,5.5 A 4.5,4.5 0 1 1 13.988225,1.750502 L 11.5,5.5 z" transform="matrix(0.8660254,0.5,-0.5,0.8660254,89.790708,-4.5131397)"/><path style="fill:#fff;fill-opacity:1;stroke:none;stroke-width:2;stroke-linecap:butt;stroke-miterlimit:4;stroke-dasharray:none;stroke-opacity:1" id="path11518" d="M 23 -7.5 A 1.5 1.5 0 1 1 20,-7.5 A 1.5 1.5 0 1 1 23 -7.5 z" transform="translate(83.5,13.5)"/><path style="fill:#fff;fill-opacity:1;stroke:none;stroke-width:2;stroke-linecap:butt;stroke-miterlimit:4;stroke-dasharray:none;stroke-opacity:1" id="path11520" d="M 23 -7.5 A 1.5 1.5 0 1 1 20,-7.5 A 1.5 1.5 0 1 1 23 -7.5 z" transform="translate(89.5,13.5)"/><path style="fill:#fff;fill-opacity:1;stroke:none;stroke-width:2;stroke-linecap:butt;stroke-miterlimit:4;stroke-dasharray:none;stroke-opacity:1" id="path11522" d="M 23 -7.5 A 1.5 1.5 0 1 1 20,-7.5 A 1.5 1.5 0 1 1 23 -7.5 z" transform="translate(95.5,13.5)"/><path style="fill:#fff71e;fill-opacity:1;stroke:none;stroke-width:2;stroke-linecap:butt;stroke-miterlimit:4;stroke-dasharray:none;stroke-opacity:1" id="path11524" d="M 16,5.5 A 4.5,4.5 0 1 1 13.988225,1.750502 L 11.5,5.5 z" transform="matrix(0.8660254,0.5,-0.5,0.8660254,119.79071,-4.5131397)"/><path style="fill:#fff;fill-opacity:1;stroke:none;stroke-width:2;stroke-linecap:butt;stroke-miterlimit:4;stroke-dasharray:none;stroke-opacity:1" id="path11526" d="M 23 -7.5 A 1.5 1.5 0 1 1 20,-7.5 A 1.5 1.5 0 1 1 23 -7.5 z" transform="translate(113.5,13.5)"/><path style="fill:#fff;fill-opacity:1;stroke:none;stroke-width:2;stroke-linecap:butt;stroke-miterlimit:4;stroke-dasharray:none;stroke-opacity:1" id="path11528" d="M 23 -7.5 A 1.5 1.5 0 1 1 20,-7.5 A 1.5 1.5 0 1 1 23 -7.5 z" transform="translate(119.5,13.5)"/><path style="fill:#fff;fill-opacity:1;stroke:none;stroke-width:2;stroke-linecap:butt;stroke-miterlimit:4;stroke-dasharray:none;stroke-opacity:1" id="path11530" d="M 23 -7.5 A 1.5 1.5 0 1 1 20,-7.5 A 1.5 1.5 0 1 1 23 -7.5 z" transform="translate(125.5,13.5)"/><path style="fill:#fff71e;fill-opacity:1;stroke:none;stroke-width:2;stroke-linecap:butt;stroke-miterlimit:4;stroke-dasharray:none;stroke-opacity:1" id="path11532" d="M 16,5.5 A 4.5,4.5 0 1 1 13.988225,1.750502 L 11.5,5.5 z" transform="matrix(0.8660254,0.5,-0.5,0.8660254,149.79071,-4.5131397)"/><path style="fill:#fff;fill-opacity:1;stroke:none;stroke-width:2;stroke-linecap:butt;stroke-miterlimit:4;stroke-dasharray:none;stroke-opacity:1" id="path11534" d="M 23 -7.5 A 1.5 1.5 0 1 1 20,-7.5 A 1.5 1.5 0 1 1 23 -7.5 z" transform="translate(143.5,13.5)"/><path style="fill:#fff;fill-opacity:1;stroke:none;stroke-width:2;stroke-linecap:butt;stroke-miterlimit:4;stroke-dasharray:none;stroke-opacity:1" id="path11536" d="M 23 -7.5 A 1.5 1.5 0 1 1 20,-7.5 A 1.5 1.5 0 1 1 23 -7.5 z" transform="translate(149.5,13.5)"/><path style="fill:#fff;fill-opacity:1;stroke:none;stroke-width:2;stroke-linecap:butt;stroke-miterlimit:4;stroke-dasharray:none;stroke-opacity:1" id="path11538" d="M 23 -7.5 A 1.5 1.5 0 1 1 20,-7.5 A 1.5 1.5 0 1 1 23 -7.5 z" transform="translate(155.5,13.5)"/><path style="fill:#fff71e;fill-opacity:1;stroke:none;stroke-width:2;stroke-linecap:butt;stroke-miterlimit:4;stroke-dasharray:none;stroke-opacity:1" id="path11540" d="M 16,5.5 A 4.5,4.5 0 1 1 13.988225,1.750502 L 11.5,5.5 z" transform="matrix(0.8660254,0.5,-0.5,0.8660254,179.79071,-4.5131397)"/><path style="fill:#fff;fill-opacity:1;stroke:none;stroke-width:2;stroke-linecap:butt;stroke-miterlimit:4;stroke-dasharray:none;stroke-opacity:1" id="path11542" d="M 23 -7.5 A 1.5 1.5 0 1 1 20,-7.5 A 1.5 1.5 0 1 1 23 -7.5 z" transform="translate(173.5,13.5)"/><path style="fill:#fff;fill-opacity:1;stroke:none;stroke-width:2;stroke-linecap:butt;stroke-miterlimit:4;stroke-dasharray:none;stroke-opacity:1" id="path11544" d="M 23 -7.5 A 1.5 1.5 0 1 1 20,-7.5 A 1.5 1.5 0 1 1 23 -7.5 z" transform="translate(179.5,13.5)"/><path style="fill:#fff;fill-opacity:1;stroke:none;stroke-width:2;stroke-linecap:butt;stroke-miterlimit:4;stroke-dasharray:none;stroke-opacity:1" id="path11546" d="M 23 -7.5 A 1.5 1.5 0 1 1 20,-7.5 A 1.5 1.5 0 1 1 23 -7.5 z" transform="translate(185.5,13.5)"/><path style="fill:#fff71e;fill-opacity:1;stroke:none;stroke-width:2;stroke-linecap:butt;stroke-miterlimit:4;stroke-dasharray:none;stroke-opacity:1" id="path11548" d="M 16,5.5 A 4.5,4.5 0 1 1 13.988225,1.750502 L 11.5,5.5 z" transform="matrix(0.8660254,0.5,-0.5,0.8660254,209.79071,-4.5131397)"/><path style="fill:#fff;fill-opacity:1;stroke:none;stroke-width:2;stroke-linecap:butt;stroke-miterlimit:4;stroke-dasharray:none;stroke-opacity:1" id="path11550" d="M 23 -7.5 A 1.5 1.5 0 1 1 20,-7.5 A 1.5 1.5 0 1 1 23 -7.5 z" transform="translate(203.5,13.5)"/><path style="fill:#fff;fill-opacity:1;stroke:none;stroke-width:2;stroke-linecap:butt;stroke-miterlimit:4;stroke-dasharray:none;stroke-opacity:1" id="path11552" d="M 23 -7.5 A 1.5 1.5 0 1 1 20,-7.5 A 1.5 1.5 0 1 1 23 -7.5 z" transform="translate(209.5,13.5)"/><path style="fill:#fff;fill-opacity:1;stroke:none;stroke-width:2;stroke-linecap:butt;stroke-miterlimit:4;stroke-dasharray:none;stroke-opacity:1" id="path11554" d="M 23 -7.5 A 1.5 1.5 0 1 1 20,-7.5 A 1.5 1.5 0 1 1 23 -7.5 z" transform="translate(215.5,13.5)"/><path style="fill:#fff71e;fill-opacity:1;stroke:none;stroke-width:2;stroke-linecap:butt;stroke-miterlimit:4;stroke-dasharray:none;stroke-opacity:1" id="path11556" d="M 16,5.5 A 4.5,4.5 0 1 1 13.988225,1.750502 L 11.5,5.5 z" transform="matrix(0.8660254,0.5,-0.5,0.8660254,239.79071,-4.5131397)"/><path style="fill:#fff;fill-opacity:1;stroke:none;stroke-width:2;stroke-linecap:butt;stroke-miterlimit:4;stroke-dasharray:none;stroke-opacity:1" id="path11558" d="M 23 -7.5 A 1.5 1.5 0 1 1 20,-7.5 A 1.5 1.5 0 1 1 23 -7.5 z" transform="translate(233.5,13.5)"/><path style="fill:#fff;fill-opacity:1;stroke:none;stroke-width:2;stroke-linecap:butt;stroke-miterlimit:4;stroke-dasharray:none;stroke-opacity:1" id="path11560" d="M 23 -7.5 A 1.5 1.5 0 1 1 20,-7.5 A 1.5 1.5 0 1 1 23 -7.5 z" transform="translate(239.5,13.5)"/><path style="fill:#fff;fill-opacity:1;stroke:none;stroke-width:2;stroke-linecap:butt;stroke-miterlimit:4;stroke-dasharray:none;stroke-opacity:1" id="path11562" d="M 23 -7.5 A 1.5 1.5 0 1 1 20,-7.5 A 1.5 1.5 0 1 1 23 -7.5 z" transform="translate(245.5,13.5)"/><path style="fill:#fff71e;fill-opacity:1;stroke:none;stroke-width:2;stroke-linecap:butt;stroke-miterlimit:4;stroke-dasharray:none;stroke-opacity:1" id="path11564" d="M 16,5.5 A 4.5,4.5 0 1 1 13.988225,1.750502 L 11.5,5.5 z" transform="matrix(0.8660254,0.5,-0.5,0.8660254,269.79071,-4.5131397)"/><path style="fill:#fff;fill-opacity:1;stroke:none;stroke-width:2;stroke-linecap:butt;stroke-miterlimit:4;stroke-dasharray:none;stroke-opacity:1" id="path11566" d="M 23 -7.5 A 1.5 1.5 0 1 1 20,-7.5 A 1.5 1.5 0 1 1 23 -7.5 z" transform="translate(263.5,13.5)"/><path style="fill:#fff;fill-opacity:1;stroke:none;stroke-width:2;stroke-linecap:butt;stroke-miterlimit:4;stroke-dasharray:none;stroke-opacity:1" id="path11568" d="M 23 -7.5 A 1.5 1.5 0 1 1 20,-7.5 A 1.5 1.5 0 1 1 23 -7.5 z" transform="translate(269.5,13.5)"/><path style="fill:#fff;fill-opacity:1;stroke:none;stroke-width:2;stroke-linecap:butt;stroke-miterlimit:4;stroke-dasharray:none;stroke-opacity:1" id="path11570" d="M 23 -7.5 A 1.5 1.5 0 1 1 20,-7.5 A 1.5 1.5 0 1 1 23 -7.5 z" transform="translate(275.5,13.5)"/></g></svg>