<svg xmlns="http://www.w3.org/2000/svg" xmlns:cc="http://web.resource.org/cc/" xmlns:svg="http://www.w3.org/2000/svg" id="svg5087" width="300" height="13" version="1.0"><defs id="defs5089"><linearGradient id="linearGradient6143"><stop style="stop-color:#fff;stop-opacity:1" id="stop6145" offset="0"/><stop id="stop6147" offset=".5" style="stop-color:#a2f09b;stop-opacity:1"/><stop style="stop-color:#fff;stop-opacity:1" id="stop6149" offset="1"/></linearGradient><linearGradient id="linearGradient6135"><stop id="stop6137" offset="0" style="stop-color:#fff;stop-opacity:1"/><stop style="stop-color:#ffafaf;stop-opacity:1" id="stop6139" offset=".5"/><stop id="stop6141" offset="1" style="stop-color:#fff;stop-opacity:1"/></linearGradient><linearGradient id="linearGradient5017"><stop style="stop-color:#fff;stop-opacity:1" id="stop5019" offset="0"/><stop id="stop5025" offset=".5" style="stop-color:#afc0ff;stop-opacity:1"/><stop style="stop-color:#fff;stop-opacity:1" id="stop5021" offset="1"/></linearGradient></defs><metadata id="metadata5092"/><g id="layer1"><path style="fill:none;fill-rule:evenodd;stroke:#c8c8c8;stroke-width:1px;stroke-linecap:butt;stroke-linejoin:miter;stroke-opacity:1" id="path11986" d="M 75,1 L 90,7 L 75,13"/><path style="fill:none;fill-rule:evenodd;stroke:#c8c8c8;stroke-width:1px;stroke-linecap:butt;stroke-linejoin:miter;stroke-opacity:1" id="path11988" d="M 90,1 L 105,7 L 90,13"/><path style="fill:none;fill-rule:evenodd;stroke:#c8c8c8;stroke-width:1px;stroke-linecap:butt;stroke-linejoin:miter;stroke-opacity:1" id="path11990" d="M 105,1 L 120,7 L 105,13"/><path style="fill:none;fill-rule:evenodd;stroke:#c8c8c8;stroke-width:1px;stroke-linecap:butt;stroke-linejoin:miter;stroke-opacity:1" id="path11992" d="M 60,1 L 75,7 L 60,13"/><path style="fill:none;fill-rule:evenodd;stroke:#c8c8c8;stroke-width:1px;stroke-linecap:butt;stroke-linejoin:miter;stroke-opacity:1" id="path11994" d="M 135,1 L 150,7 L 135,13"/><path style="fill:none;fill-rule:evenodd;stroke:#c8c8c8;stroke-width:1px;stroke-linecap:butt;stroke-linejoin:miter;stroke-opacity:1" id="path11996" d="M 150,1 L 165,7 L 150,13"/><path style="fill:none;fill-rule:evenodd;stroke:#c8c8c8;stroke-width:1px;stroke-linecap:butt;stroke-linejoin:miter;stroke-opacity:1" id="path11998" d="M 165,1 L 180,7 L 165,13"/><path style="fill:none;fill-rule:evenodd;stroke:#c8c8c8;stroke-width:1px;stroke-linecap:butt;stroke-linejoin:miter;stroke-opacity:1" id="path12000" d="M 120,1 L 135,7 L 120,13"/><path style="fill:none;fill-rule:evenodd;stroke:#c8c8c8;stroke-width:1px;stroke-linecap:butt;stroke-linejoin:miter;stroke-opacity:1" id="path12002" d="M 195,1 L 210,7 L 195,13"/><path style="fill:none;fill-rule:evenodd;stroke:#c8c8c8;stroke-width:1px;stroke-linecap:butt;stroke-linejoin:miter;stroke-opacity:1" id="path12004" d="M 210,1 L 225,7 L 210,13"/><path style="fill:none;fill-rule:evenodd;stroke:#c8c8c8;stroke-width:1px;stroke-linecap:butt;stroke-linejoin:miter;stroke-opacity:1" id="path12006" d="M 225,1 L 240,7 L 225,13"/><path style="fill:none;fill-rule:evenodd;stroke:#c8c8c8;stroke-width:1px;stroke-linecap:butt;stroke-linejoin:miter;stroke-opacity:1" id="path12008" d="M 180,1 L 195,7 L 180,13"/><path style="fill:none;fill-rule:evenodd;stroke:#c8c8c8;stroke-width:1px;stroke-linecap:butt;stroke-linejoin:miter;stroke-opacity:1" id="path12010" d="M 255,1 L 270,7 L 255,13"/><path style="fill:none;fill-rule:evenodd;stroke:#c8c8c8;stroke-width:1px;stroke-linecap:butt;stroke-linejoin:miter;stroke-opacity:1" id="path12012" d="M 270,1 L 285,7 L 270,13"/><path style="fill:none;fill-rule:evenodd;stroke:#c8c8c8;stroke-width:1px;stroke-linecap:butt;stroke-linejoin:miter;stroke-opacity:1" id="path12014" d="M 285,1 L 300,7 L 285,13"/><path style="fill:none;fill-rule:evenodd;stroke:#c8c8c8;stroke-width:1px;stroke-linecap:butt;stroke-linejoin:miter;stroke-opacity:1" id="path12016" d="M 240,1 L 255,7 L 240,13"/><path style="fill:none;fill-rule:evenodd;stroke:#c8c8c8;stroke-width:1px;stroke-linecap:butt;stroke-linejoin:miter;stroke-opacity:1" id="path11980" d="M 15,1 L 30,7 L 15,13"/><path style="fill:none;fill-rule:evenodd;stroke:#c8c8c8;stroke-width:1px;stroke-linecap:butt;stroke-linejoin:miter;stroke-opacity:1" id="path11982" d="M 30,1 L 45,7 L 30,13"/><path style="fill:none;fill-rule:evenodd;stroke:#c8c8c8;stroke-width:1px;stroke-linecap:butt;stroke-linejoin:miter;stroke-opacity:1" id="path11984" d="M 45,1 L 60,7 L 45,13"/><path style="fill:none;fill-rule:evenodd;stroke:#c8c8c8;stroke-width:1px;stroke-linecap:butt;stroke-linejoin:miter;stroke-opacity:1" id="path11978" d="M 0,1 L 15,7 L 0,13"/><path style="fill:none;fill-rule:evenodd;stroke:#818181;stroke-width:1px;stroke-linecap:butt;stroke-linejoin:miter;stroke-opacity:1" id="path11893" d="M -3.1247353e-09,9.51288 L 299.99488,9.51288"/><path style="fill:none;fill-rule:evenodd;stroke:#818181;stroke-width:1px;stroke-linecap:butt;stroke-linejoin:miter;stroke-opacity:1" id="path11895" d="M -0.5,1.5 L 300.52051,1.5"/><path style="fill:none;fill-rule:evenodd;stroke:#00f;stroke-width:3;stroke-linecap:butt;stroke-linejoin:miter;stroke-miterlimit:4;stroke-dasharray:none;stroke-opacity:1" id="path11897" d="M -0.5,5.5 L 300.00768,5.5"/></g></svg>