<svg xmlns="http://www.w3.org/2000/svg" xmlns:cc="http://web.resource.org/cc/" xmlns:svg="http://www.w3.org/2000/svg" xmlns:xlink="http://www.w3.org/1999/xlink" id="svg5087" width="300" height="12" version="1.0"><defs id="defs5089"><linearGradient id="linearGradient6306"><stop style="stop-color:#fff;stop-opacity:1" id="stop6308" offset="0"/><stop id="stop6310" offset=".5" style="stop-color:#a2f09b;stop-opacity:1"/><stop style="stop-color:#fff;stop-opacity:1" id="stop6312" offset="1"/></linearGradient><linearGradient id="linearGradient6135"><stop id="stop6137" offset="0" style="stop-color:#fff;stop-opacity:1"/><stop style="stop-color:#ffafaf;stop-opacity:1" id="stop6139" offset=".5"/><stop id="stop6141" offset="1" style="stop-color:#fff;stop-opacity:1"/></linearGradient><linearGradient id="linearGradient5017"><stop style="stop-color:#fff;stop-opacity:1" id="stop5019" offset="0"/><stop id="stop5025" offset=".5" style="stop-color:#afc0ff;stop-opacity:1"/><stop style="stop-color:#fff;stop-opacity:1" id="stop5021" offset="1"/></linearGradient><linearGradient id="linearGradient5023" x1="70.019" x2="70.019" y1="0" y2="11.006" gradientTransform="scale(1,1.0909091)" gradientUnits="userSpaceOnUse" xlink:href="#linearGradient6306"/></defs><metadata id="metadata5092"/><g id="layer1"><rect style="fill:url(#linearGradient5023);fill-opacity:1;stroke:none;stroke-width:2;stroke-miterlimit:4;stroke-dasharray:none;stroke-opacity:1" id="rect4046" width="300" height="12" x="0" y="0"/><path style="fill:none;fill-rule:evenodd;stroke:#3fcf42;stroke-width:1px;stroke-linecap:butt;stroke-linejoin:miter;stroke-opacity:1" id="path8264" d="M 1,1 L 8,6 L 1,11"/><path style="fill:none;fill-rule:evenodd;stroke:#3fcf42;stroke-width:1px;stroke-linecap:butt;stroke-linejoin:miter;stroke-opacity:1" id="path9394" d="M 11,1 L 18,6 L 11,11"/><path style="fill:none;fill-rule:evenodd;stroke:#000;stroke-width:1px;stroke-linecap:butt;stroke-linejoin:miter;stroke-opacity:1" id="path5095" d="M 0,6 C 10,-9 10,21 20,6"/><path style="fill:none;fill-rule:evenodd;stroke:#3fcf42;stroke-width:1px;stroke-linecap:butt;stroke-linejoin:miter;stroke-opacity:1" id="path9390" d="M 21,1 L 28,6 L 21,11"/><path style="fill:none;fill-rule:evenodd;stroke:#3fcf42;stroke-width:1px;stroke-linecap:butt;stroke-linejoin:miter;stroke-opacity:1" id="path9396" d="M 31,1 L 38,6 L 31,11"/><path style="fill:none;fill-rule:evenodd;stroke:#000;stroke-width:1px;stroke-linecap:butt;stroke-linejoin:miter;stroke-opacity:1" id="path9392" d="M 20,6 C 30,-9 30,21 40,6"/><path style="fill:none;fill-rule:evenodd;stroke:#3fcf42;stroke-width:1px;stroke-linecap:butt;stroke-linejoin:miter;stroke-opacity:1" id="path9398" d="M 41,1 L 48,6 L 41,11"/><path style="fill:none;fill-rule:evenodd;stroke:#3fcf42;stroke-width:1px;stroke-linecap:butt;stroke-linejoin:miter;stroke-opacity:1" id="path9400" d="M 51,1 L 58,6 L 51,11"/><path style="fill:none;fill-rule:evenodd;stroke:#000;stroke-width:1px;stroke-linecap:butt;stroke-linejoin:miter;stroke-opacity:1" id="path9402" d="M 40,6 C 50,-9 50,21 60,6"/><path style="fill:none;fill-rule:evenodd;stroke:#3fcf42;stroke-width:1px;stroke-linecap:butt;stroke-linejoin:miter;stroke-opacity:1" id="path9404" d="M 61,1 L 68,6 L 61,11"/><path style="fill:none;fill-rule:evenodd;stroke:#3fcf42;stroke-width:1px;stroke-linecap:butt;stroke-linejoin:miter;stroke-opacity:1" id="path9406" d="M 71,1 L 78,6 L 71,11"/><path style="fill:none;fill-rule:evenodd;stroke:#000;stroke-width:1px;stroke-linecap:butt;stroke-linejoin:miter;stroke-opacity:1" id="path9408" d="M 60,6 C 70,-9 70,21 80,6"/><path style="fill:none;fill-rule:evenodd;stroke:#3fcf42;stroke-width:1px;stroke-linecap:butt;stroke-linejoin:miter;stroke-opacity:1" id="path9410" d="M 81,1 L 88,6 L 81,11"/><path style="fill:none;fill-rule:evenodd;stroke:#3fcf42;stroke-width:1px;stroke-linecap:butt;stroke-linejoin:miter;stroke-opacity:1" id="path9412" d="M 91,1 L 98,6 L 91,11"/><path style="fill:none;fill-rule:evenodd;stroke:#000;stroke-width:1px;stroke-linecap:butt;stroke-linejoin:miter;stroke-opacity:1" id="path9414" d="M 80,6 C 90,-9 90,21 100,6"/><path style="fill:none;fill-rule:evenodd;stroke:#3fcf42;stroke-width:1px;stroke-linecap:butt;stroke-linejoin:miter;stroke-opacity:1" id="path10451" d="M 101,1 L 108,6 L 101,11"/><path style="fill:none;fill-rule:evenodd;stroke:#3fcf42;stroke-width:1px;stroke-linecap:butt;stroke-linejoin:miter;stroke-opacity:1" id="path10453" d="M 111,1 L 118,6 L 111,11"/><path style="fill:none;fill-rule:evenodd;stroke:#000;stroke-width:1px;stroke-linecap:butt;stroke-linejoin:miter;stroke-opacity:1" id="path10455" d="M 100,6 C 110,-9 110,21 120,6"/><path style="fill:none;fill-rule:evenodd;stroke:#3fcf42;stroke-width:1px;stroke-linecap:butt;stroke-linejoin:miter;stroke-opacity:1" id="path10457" d="M 121,1 L 128,6 L 121,11"/><path style="fill:none;fill-rule:evenodd;stroke:#3fcf42;stroke-width:1px;stroke-linecap:butt;stroke-linejoin:miter;stroke-opacity:1" id="path10459" d="M 131,1 L 138,6 L 131,11"/><path style="fill:none;fill-rule:evenodd;stroke:#000;stroke-width:1px;stroke-linecap:butt;stroke-linejoin:miter;stroke-opacity:1" id="path10461" d="M 120,6 C 130,-9 130,21 140,6"/><path style="fill:none;fill-rule:evenodd;stroke:#3fcf42;stroke-width:1px;stroke-linecap:butt;stroke-linejoin:miter;stroke-opacity:1" id="path10463" d="M 141,1 L 148,6 L 141,11"/><path style="fill:none;fill-rule:evenodd;stroke:#3fcf42;stroke-width:1px;stroke-linecap:butt;stroke-linejoin:miter;stroke-opacity:1" id="path10465" d="M 151,1 L 158,6 L 151,11"/><path style="fill:none;fill-rule:evenodd;stroke:#000;stroke-width:1px;stroke-linecap:butt;stroke-linejoin:miter;stroke-opacity:1" id="path10467" d="M 140,6 C 150,-9 150,21 160,6"/><path style="fill:none;fill-rule:evenodd;stroke:#3fcf42;stroke-width:1px;stroke-linecap:butt;stroke-linejoin:miter;stroke-opacity:1" id="path10469" d="M 161,1 L 168,6 L 161,11"/><path style="fill:none;fill-rule:evenodd;stroke:#3fcf42;stroke-width:1px;stroke-linecap:butt;stroke-linejoin:miter;stroke-opacity:1" id="path10471" d="M 171,1 L 178,6 L 171,11"/><path style="fill:none;fill-rule:evenodd;stroke:#000;stroke-width:1px;stroke-linecap:butt;stroke-linejoin:miter;stroke-opacity:1" id="path10473" d="M 160,6 C 170,-9 170,21 180,6"/><path style="fill:none;fill-rule:evenodd;stroke:#3fcf42;stroke-width:1px;stroke-linecap:butt;stroke-linejoin:miter;stroke-opacity:1" id="path10479" d="M 181,1 L 188,6 L 181,11"/><path style="fill:none;fill-rule:evenodd;stroke:#3fcf42;stroke-width:1px;stroke-linecap:butt;stroke-linejoin:miter;stroke-opacity:1" id="path10481" d="M 191,1 L 198,6 L 191,11"/><path style="fill:none;fill-rule:evenodd;stroke:#000;stroke-width:1px;stroke-linecap:butt;stroke-linejoin:miter;stroke-opacity:1" id="path10483" d="M 180,6 C 190,-9 190,21 200,6"/><path style="fill:none;fill-rule:evenodd;stroke:#3fcf42;stroke-width:1px;stroke-linecap:butt;stroke-linejoin:miter;stroke-opacity:1" id="path10485" d="M 201,1 L 208,6 L 201,11"/><path style="fill:none;fill-rule:evenodd;stroke:#3fcf42;stroke-width:1px;stroke-linecap:butt;stroke-linejoin:miter;stroke-opacity:1" id="path10487" d="M 211,1 L 218,6 L 211,11"/><path style="fill:none;fill-rule:evenodd;stroke:#000;stroke-width:1px;stroke-linecap:butt;stroke-linejoin:miter;stroke-opacity:1" id="path10489" d="M 200,6 C 210,-9 210,21 220,6"/><path style="fill:none;fill-rule:evenodd;stroke:#3fcf42;stroke-width:1px;stroke-linecap:butt;stroke-linejoin:miter;stroke-opacity:1" id="path10491" d="M 221,1 L 228,6 L 221,11"/><path style="fill:none;fill-rule:evenodd;stroke:#3fcf42;stroke-width:1px;stroke-linecap:butt;stroke-linejoin:miter;stroke-opacity:1" id="path10493" d="M 231,1 L 238,6 L 231,11"/><path style="fill:none;fill-rule:evenodd;stroke:#000;stroke-width:1px;stroke-linecap:butt;stroke-linejoin:miter;stroke-opacity:1" id="path10495" d="M 220,6 C 230,-9 230,21 240,6"/><path style="fill:none;fill-rule:evenodd;stroke:#3fcf42;stroke-width:1px;stroke-linecap:butt;stroke-linejoin:miter;stroke-opacity:1" id="path10497" d="M 241,1 L 248,6 L 241,11"/><path style="fill:none;fill-rule:evenodd;stroke:#3fcf42;stroke-width:1px;stroke-linecap:butt;stroke-linejoin:miter;stroke-opacity:1" id="path10499" d="M 251,1 L 258,6 L 251,11"/><path style="fill:none;fill-rule:evenodd;stroke:#000;stroke-width:1px;stroke-linecap:butt;stroke-linejoin:miter;stroke-opacity:1" id="path10501" d="M 240,6 C 250,-9 250,21 260,6"/><path style="fill:none;fill-rule:evenodd;stroke:#3fcf42;stroke-width:1px;stroke-linecap:butt;stroke-linejoin:miter;stroke-opacity:1" id="path10503" d="M 261,1 L 268,6 L 261,11"/><path style="fill:none;fill-rule:evenodd;stroke:#3fcf42;stroke-width:1px;stroke-linecap:butt;stroke-linejoin:miter;stroke-opacity:1" id="path10505" d="M 271,1 L 278,6 L 271,11"/><path style="fill:none;fill-rule:evenodd;stroke:#000;stroke-width:1px;stroke-linecap:butt;stroke-linejoin:miter;stroke-opacity:1" id="path10507" d="M 260,6 C 270,-9 270,21 280,6"/><path style="fill:none;fill-rule:evenodd;stroke:#3fcf42;stroke-width:1px;stroke-linecap:butt;stroke-linejoin:miter;stroke-opacity:1" id="path10509" d="M 281,1 L 288,6 L 281,11"/><path style="fill:none;fill-rule:evenodd;stroke:#3fcf42;stroke-width:1px;stroke-linecap:butt;stroke-linejoin:miter;stroke-opacity:1" id="path10511" d="M 291,1 L 298,6 L 291,11"/><path style="fill:none;fill-rule:evenodd;stroke:#000;stroke-width:1px;stroke-linecap:butt;stroke-linejoin:miter;stroke-opacity:1" id="path10513" d="M 280,6 C 290,-9 290,21 300,6"/></g></svg>